<svg id="Слой_1" data-name="Слой 1" xmlns="http://www.w3.org/2000/svg" viewBox="0 0 428.36 71.56"><defs><style>.cls-1{fill:#fff;}.cls-2{fill:#f71516;}</style></defs><title>LW_logo_white</title><path class="cls-1" d="M90.77,426.73a.71.71,0,0,1-.51-.14.41.41,0,0,1-.11-.37l4.91-27.81a.53.53,0,0,1,.24-.36.88.88,0,0,1,.55-.15h2a2.51,2.51,0,0,1,1.42.34.85.85,0,0,1,.4.91L95.26,424h4.32a1.79,1.79,0,0,1,1.24.39,1.06,1.06,0,0,1,.31,1l-.15.83a.49.49,0,0,1-.27.37,1.2,1.2,0,0,1-.55.12Z" transform="translate(-90.14 -397.51)"/><path class="cls-1" d="M131.67,422.92a4.32,4.32,0,0,1-2.32,3.08,10.38,10.38,0,0,1-5.17,1.12,11.21,11.21,0,0,1-2.73-.29,6,6,0,0,1-2-.84,3.14,3.14,0,0,1-1.13-1.32,2.91,2.91,0,0,1-.17-1.75l4.32-24.51a.57.57,0,0,1,.24-.36.9.9,0,0,1,.55-.15h2a2.51,2.51,0,0,1,1.42.34.85.85,0,0,1,.4.91l-4.19,23.77a1.1,1.1,0,0,0,.31,1.06,2.1,2.1,0,0,0,1.47.41,2.74,2.74,0,0,0,1.6-.41,1.57,1.57,0,0,0,.7-1.06l4.19-23.77a1.3,1.3,0,0,1,.73-.91,3.09,3.09,0,0,1,1.53-.34h2a.68.68,0,0,1,.5.15.37.37,0,0,1,.11.36Z" transform="translate(-90.14 -397.51)"/><path class="cls-1" d="M160.24,412.32l-.1,13.9a.43.43,0,0,1-.22.37,1,1,0,0,1-.57.14h-2a2,2,0,0,1-1.43-.4,1.3,1.3,0,0,1-.36-1l.5-9.63-2.89,9.63a1.87,1.87,0,0,1-.73,1,2.57,2.57,0,0,1-1.56.4h-2a.75.75,0,0,1-.52-.14.32.32,0,0,1-.1-.37l4.85-13.9,0-13.91a.44.44,0,0,1,.23-.36,1,1,0,0,1,.57-.15h2a2,2,0,0,1,1.42.4,1.28,1.28,0,0,1,.36,1l-.47,9.63,3-9.63a1.9,1.9,0,0,1,.73-1,2.64,2.64,0,0,1,1.56-.4h2a.68.68,0,0,1,.5.15.4.4,0,0,1,.12.36Z" transform="translate(-90.14 -397.51)"/><path class="cls-1" d="M191.5,422.92a4.35,4.35,0,0,1-2.32,3.08,10.42,10.42,0,0,1-5.18,1.12,11.07,11.07,0,0,1-2.72-.29,5.8,5.8,0,0,1-2-.84,3.1,3.1,0,0,1-1.14-1.32,3,3,0,0,1-.17-1.75l4.32-24.51a.61.61,0,0,1,.24-.36.93.93,0,0,1,.56-.15h2a2.45,2.45,0,0,1,1.41.34.86.86,0,0,1,.41.91l-4.19,23.77A1.09,1.09,0,0,0,183,424a2.11,2.11,0,0,0,1.48.41,2.76,2.76,0,0,0,1.6-.41,1.56,1.56,0,0,0,.69-1.06l4.2-23.77a1.26,1.26,0,0,1,.72-.91,3.13,3.13,0,0,1,1.54-.34h2a.7.7,0,0,1,.5.15.4.4,0,0,1,.11.36Z" transform="translate(-90.14 -397.51)"/><path class="cls-1" d="M220.32,397.9a10.52,10.52,0,0,1,2.69.31,6.2,6.2,0,0,1,2,.84,3.14,3.14,0,0,1,1.12,1.32,3,3,0,0,1,.17,1.73l-1.57,8.9a3.08,3.08,0,0,1-.93,1.76,5.53,5.53,0,0,1-1.9,1.1,3.44,3.44,0,0,1,1.52,1.08,2.2,2.2,0,0,1,.31,1.73L222,426.22a.6.6,0,0,1-.24.37.93.93,0,0,1-.56.14h-2a2.14,2.14,0,0,1-1.46-.4,1.06,1.06,0,0,1-.32-1l1.52-8.62a1.17,1.17,0,0,0-.29-1.07,2.11,2.11,0,0,0-1.49-.4h-2l-1.78,10.09a1.58,1.58,0,0,1-.7,1,2.74,2.74,0,0,1-1.6.4h-2a.7.7,0,0,1-.5-.14.38.38,0,0,1-.11-.37l4.9-27.81a.61.61,0,0,1,.24-.36.93.93,0,0,1,.56-.15Zm-2.6,2.74-2.08,11.82h2a2.7,2.7,0,0,0,1.62-.41A1.65,1.65,0,0,0,220,411l1.57-8.9a1.12,1.12,0,0,0-.33-1.05,2.12,2.12,0,0,0-1.46-.41Z" transform="translate(-90.14 -397.51)"/><path class="cls-1" d="M247.36,425.85a.91.91,0,0,1-.48.63,1.76,1.76,0,0,1-.94.25h-2.18a1.32,1.32,0,0,1-.85-.25.6.6,0,0,1-.26-.63l1.89-10.72-.64-16.72a.35.35,0,0,1,.2-.36,1.1,1.1,0,0,1,.59-.15h2a2,2,0,0,1,1.42.4,1.32,1.32,0,0,1,.37,1l-.6,10.36,3.09-10.36a2,2,0,0,1,.73-1,2.69,2.69,0,0,1,1.57-.4h2a.82.82,0,0,1,.53.15.26.26,0,0,1,.08.36l-6.57,16.72Z" transform="translate(-90.14 -397.51)"/><path class="cls-1" d="M361.88,426.73a.65.65,0,0,1-.47-.14.47.47,0,0,1-.15-.35l1-17.81-5.22,17.81a.65.65,0,0,1-.27.35.81.81,0,0,1-.51.14h-4a.62.62,0,0,1-.46-.14.41.41,0,0,1-.15-.35l1-27.73a.55.55,0,0,1,.26-.41,1.27,1.27,0,0,1,.76-.2h1.72a2.42,2.42,0,0,1,1.4.36,1,1,0,0,1,.49.86l-1.85,21.11,5.83-21.11a1.58,1.58,0,0,1,.76-.83,3.22,3.22,0,0,1,1.43-.39h1.16a2.39,2.39,0,0,1,1.39.36,1,1,0,0,1,.5.86L365,420.23l5.59-21.11a1.5,1.5,0,0,1,.8-.86,3.05,3.05,0,0,1,1.52-.36h1.72a1,1,0,0,1,.69.2.38.38,0,0,1,.12.41l-8.76,27.73a.76.76,0,0,1-.27.35.84.84,0,0,1-.52.14Z" transform="translate(-90.14 -397.51)"/><path class="cls-1" d="M394.89,397.9a2.51,2.51,0,0,1,1.42.34.87.87,0,0,1,.4.91l-2.07,11.73h4.08l2.07-11.73a1.29,1.29,0,0,1,.72-.91,3.16,3.16,0,0,1,1.54-.34h2a.7.7,0,0,1,.5.15.37.37,0,0,1,.11.36l-4.9,27.81a.6.6,0,0,1-.24.37.93.93,0,0,1-.56.14h-2a2.1,2.1,0,0,1-1.45-.4,1,1,0,0,1-.33-1l2.06-11.68h-4.08l-2.06,11.68a1.6,1.6,0,0,1-.69,1,2.8,2.8,0,0,1-1.61.4h-2a.7.7,0,0,1-.5-.14.41.41,0,0,1-.11-.37l4.9-27.81a.61.61,0,0,1,.24-.36.93.93,0,0,1,.56-.15Z" transform="translate(-90.14 -397.51)"/><path class="cls-1" d="M433.4,397.9a.9.9,0,0,1,.5.12.34.34,0,0,1,.15.37l-.15.83a1.55,1.55,0,0,1-.67,1,2.33,2.33,0,0,1-1.37.39h-4.32l-1.85,10.48h4.67a1,1,0,0,1,.51.12.33.33,0,0,1,.15.37l-.15.83a1.55,1.55,0,0,1-.67,1,2.35,2.35,0,0,1-1.37.39H425.2L423.42,424h4.32a1.75,1.75,0,0,1,1.23.39,1,1,0,0,1,.32,1l-.15.83a.48.48,0,0,1-.28.37,1.13,1.13,0,0,1-.54.12h-9.4a.7.7,0,0,1-.5-.14.41.41,0,0,1-.11-.37l4.9-27.81a.61.61,0,0,1,.24-.36.93.93,0,0,1,.56-.15Z" transform="translate(-90.14 -397.51)"/><path class="cls-1" d="M460.83,397.9a1,1,0,0,1,.51.12.35.35,0,0,1,.14.37l-.14.83a1.56,1.56,0,0,1-.68,1,2.33,2.33,0,0,1-1.37.39H455l-1.85,10.48h4.68a.9.9,0,0,1,.5.12.33.33,0,0,1,.15.37l-.15.83a1.51,1.51,0,0,1-.67,1,2.33,2.33,0,0,1-1.37.39h-3.62L450.85,424h4.33a1.76,1.76,0,0,1,1.23.39,1.06,1.06,0,0,1,.31,1l-.15.83a.49.49,0,0,1-.27.37,1.2,1.2,0,0,1-.55.12h-9.39a.68.68,0,0,1-.5-.14.38.38,0,0,1-.11-.37l4.9-27.81a.53.53,0,0,1,.24-.36.9.9,0,0,1,.55-.15Z" transform="translate(-90.14 -397.51)"/><path class="cls-1" d="M473.79,426.73a.7.7,0,0,1-.5-.14.38.38,0,0,1-.11-.37l4.9-27.81a.61.61,0,0,1,.24-.36.93.93,0,0,1,.56-.15h2a2.47,2.47,0,0,1,1.41.34.86.86,0,0,1,.41.91L478.28,424h4.33a1.75,1.75,0,0,1,1.23.39,1,1,0,0,1,.31,1l-.14.83a.48.48,0,0,1-.28.37,1.18,1.18,0,0,1-.55.12Z" transform="translate(-90.14 -397.51)"/><path class="cls-1" d="M514.66,408a2.12,2.12,0,0,1-1.46-.4,1.09,1.09,0,0,1-.33-1l.86-4.84a1.11,1.11,0,0,0-.33-1.06,2.12,2.12,0,0,0-1.46-.4,2.77,2.77,0,0,0-1.62.4,1.64,1.64,0,0,0-.68,1.06,13.69,13.69,0,0,0-.23,3.42,8.49,8.49,0,0,0,.56,2.54,8.9,8.9,0,0,0,1.07,2c.42.59.85,1.18,1.29,1.76s.86,1.21,1.27,1.87a9.9,9.9,0,0,1,1,2.32,12.7,12.7,0,0,1,.45,3.11,20.48,20.48,0,0,1-.37,4.21,3.88,3.88,0,0,1-.79,1.75,5.29,5.29,0,0,1-1.6,1.32,8.37,8.37,0,0,1-2.29.84,12.59,12.59,0,0,1-2.82.29,8.29,8.29,0,0,1-4.78-1.12,2.89,2.89,0,0,1-1.23-3.08l1.06-6a.6.6,0,0,1,.24-.37,1,1,0,0,1,.56-.14h2a2.11,2.11,0,0,1,1.45.4,1,1,0,0,1,.33,1l-.89,5.08a1.06,1.06,0,0,0,.32,1.06,2.12,2.12,0,0,0,1.46.41,2.71,2.71,0,0,0,1.61-.41,1.59,1.59,0,0,0,.69-1.06,19,19,0,0,0,.33-4,10.27,10.27,0,0,0-.49-2.87,8.6,8.6,0,0,0-1.06-2.1c-.42-.59-.85-1.16-1.3-1.71s-.87-1.11-1.3-1.7a8.55,8.55,0,0,1-1.06-2.07,9.94,9.94,0,0,1-.5-2.81,17.8,17.8,0,0,1,.32-3.94,3.93,3.93,0,0,1,.78-1.74,5.17,5.17,0,0,1,1.61-1.32,8.64,8.64,0,0,1,2.28-.85,13,13,0,0,1,2.83-.29,8.23,8.23,0,0,1,4.77,1.12,2.88,2.88,0,0,1,1.24,3.08l-1,5.77a.56.56,0,0,1-.24.37,1,1,0,0,1-.55.14Z" transform="translate(-90.14 -397.51)"/><circle class="cls-2" cx="213.42" cy="13.59" r="10.46"/><path class="cls-1" d="M213.9,458.92c2,0,3.4.84,3.4,2.52a2.21,2.21,0,0,1-1.6,2.21,2.52,2.52,0,0,1,2,2.51c0,2.27-2.22,2.74-3.68,2.74h-4.2v-10Zm-.1,1.14H211v3.11h3.13c1,0,2-.42,2-1.56S215.21,460.06,213.8,460.06Zm.3,4.25H211v3.45h2.77c1.26,0,2.71-.08,2.71-1.72S215.06,464.31,214.1,464.31Z" transform="translate(-90.14 -397.51)"/><path class="cls-1" d="M229.25,458.92v1.14h-5.53v3.24h5.11v1.14h-5.11v3.32h5.62v1.14h-6.82v-10Z" transform="translate(-90.14 -397.51)"/><path class="cls-1" d="M237.05,458.74a6.42,6.42,0,0,1,3,.73v1.2a5.5,5.5,0,0,0-2.94-.78c-1.31,0-2.29.38-2.29,1.45,0,2.53,5.95,1.44,5.95,5,0,2-1.79,2.73-3.7,2.71a7,7,0,0,1-3.42-.85V467a6.32,6.32,0,0,0,3.34.91c1.38,0,2.56-.35,2.56-1.48,0-2.68-5.95-1.56-5.95-5.07C233.62,459.6,235.24,458.74,237.05,458.74Z" transform="translate(-90.14 -397.51)"/><path class="cls-1" d="M252.43,458.92v1.14h-3.51v8.84h-1.2v-8.84h-3.51v-1.14Z" transform="translate(-90.14 -397.51)"/><path class="cls-1" d="M266.18,458.92c2.31,0,4.23.72,4.23,3.22s-1.92,3.22-4.23,3.22H264v3.54h-1.19v-10Zm.05,1.14H264v4.16h2.27c1.63,0,3-.4,3-2.08S267.87,460.06,266.23,460.06Z" transform="translate(-90.14 -397.51)"/><path class="cls-1" d="M281.79,458.92v1.14h-5.54v3.24h5.11v1.14h-5.11v3.32h5.62v1.14h-6.82v-10Z" transform="translate(-90.14 -397.51)"/><path class="cls-1" d="M286.76,468.9v-10h3.9c1.8,0,3.74.74,3.74,3a2.87,2.87,0,0,1-2.67,2.93l3.39,4h-1.5L290.35,465H288v3.93Zm1.19-5.08h2.77c1.2,0,2.47-.4,2.47-1.88s-1.27-1.88-2.47-1.88H288Z" transform="translate(-90.14 -397.51)"/><path class="cls-1" d="M306.29,458.92v1.14h-5.56v3.44h5.15v1.14h-5.15v4.26h-1.2v-10Z" transform="translate(-90.14 -397.51)"/><path class="cls-1" d="M315.38,458.74a5.17,5.17,0,1,1-5.22,5.17A5,5,0,0,1,315.38,458.74Zm0,1.15a4,4,0,1,0,4,4A3.82,3.82,0,0,0,315.38,459.89Z" transform="translate(-90.14 -397.51)"/><path class="cls-1" d="M325.42,468.9v-10h3.9c1.8,0,3.74.74,3.74,3a2.87,2.87,0,0,1-2.67,2.93l3.39,4h-1.5L329,465h-2.4v3.93Zm1.19-5.08h2.77c1.2,0,2.47-.4,2.47-1.88s-1.27-1.88-2.47-1.88h-2.77Z" transform="translate(-90.14 -397.51)"/><path class="cls-1" d="M348.49,458.92v10h-1.2v-7.72l-3.58,5.37H343l-3.58-5.37v7.72h-1.2v-10h1l4.13,6.16,4.12-6.16Z" transform="translate(-90.14 -397.51)"/><path class="cls-1" d="M352.76,468.9l4.35-10h1.33l4.33,10h-1.28l-1-2.41h-5.38l-1,2.41Zm2.8-3.52H360l-2.07-4.85c-.05-.13-.1-.24-.15-.39-.06.15-.1.26-.16.39Z" transform="translate(-90.14 -397.51)"/><path class="cls-1" d="M367.06,468.9v-10h1.11l6,8v-8h1.2v10h-1.12l-6-8v8Z" transform="translate(-90.14 -397.51)"/><path class="cls-1" d="M385.44,458.74a6,6,0,0,1,2.81.68v1.19a4.81,4.81,0,0,0-2.61-.72A4,4,0,0,0,381.4,464c0,2.67,2.21,3.95,4.28,3.95a4.51,4.51,0,0,0,2.64-.73v1.2a6.32,6.32,0,0,1-2.9.67,5.17,5.17,0,1,1,0-10.33Z" transform="translate(-90.14 -397.51)"/><path class="cls-1" d="M399.77,458.92v1.14h-5.54v3.24h5.11v1.14h-5.11v3.32h5.62v1.14H393v-10Z" transform="translate(-90.14 -397.51)"/></svg>