<?xml version="1.0" encoding="utf-8"?>
<!-- Generator: Adobe Illustrator 22.0.1, SVG Export Plug-In . SVG Version: 6.00 Build 0)  -->
<svg version="1.1" id="Layer_1" xmlns="http://www.w3.org/2000/svg" xmlns:xlink="http://www.w3.org/1999/xlink" x="0px" y="0px"
	 viewBox="0 0 551 551" style="enable-background:new 0 0 551 551;" xml:space="preserve">
<style type="text/css">
	.st0{fill:url(#SVGID_1_);}
	.st1{fill:url(#SVGID_2_);}
</style>
<g>
	<linearGradient id="SVGID_1_" gradientUnits="userSpaceOnUse" x1="275.517" y1="362.093" x2="275.517" y2="189.7868">
		<stop  offset="0" style="stop-color:#E09B3D"/>
		<stop  offset="0.3" style="stop-color:#C74C4D"/>
		<stop  offset="0.6" style="stop-color:#C21975"/>
		<stop  offset="1" style="stop-color:#7024C4"/>
	</linearGradient>
	<circle class="st0" cx="275.5" cy="275.5" r="87.1"/>
	<linearGradient id="SVGID_2_" gradientUnits="userSpaceOnUse" x1="275.517" y1="549.43" x2="275.517" y2="4.28">
		<stop  offset="0" style="stop-color:#E09B3D"/>
		<stop  offset="0.3" style="stop-color:#C74C4D"/>
		<stop  offset="0.6" style="stop-color:#C21975"/>
		<stop  offset="1" style="stop-color:#7024C4"/>
	</linearGradient>
	<path class="st1" d="M386.9,0H164.2C73.6,0,0,73.6,0,164.2v222.7C0,477.4,73.6,551,164.2,551h222.7c90.5,0,164.2-73.6,164.2-164.2
		V164.2C551,73.6,477.4,0,386.9,0z M275.5,418C196.9,418,133,354.1,133,275.5S196.9,133,275.5,133S418,196.9,418,275.5
		S354.1,418,275.5,418z M418.3,168.2c-18.9,0-34.1-15.3-34.1-34.1s15.3-34.2,34.1-34.2s34.2,15.3,34.2,34.2S437.2,168.2,418.3,168.2
		z"/>
</g>
</svg>
